<svg width="70" height="70" viewBox="0 0 70 70" fill="none" xmlns="http://www.w3.org/2000/svg">
<g clip-path="url(#clip0_12_211)">
<path d="M33.5709 69.1051C24.5747 70.5821 21.0836 70.045 17.4583 68.8366C13.888 67.626 10.7881 65.3246 8.59632 62.2572L8.1935 61.8544C6.17942 59.0347 4.70242 55.8122 3.3597 47.4873L1.21135 33.523C-0.265642 24.3925 0.137175 20.9014 1.4799 17.2761C2.73242 13.7272 4.96757 10.6073 7.92495 8.27985L8.46204 7.87704C11.2818 5.86296 14.5043 4.38596 22.6949 3.04324L36.3906 0.89489C45.3869 -0.582103 48.8779 -0.0450144 52.5033 1.16343C56.0736 2.37396 59.1735 4.67539 61.3652 7.74277L61.7681 8.27985C63.7821 11.0996 65.2591 14.3221 66.6018 22.647L68.7502 36.477C70.2272 45.6075 69.8244 49.0986 68.4817 52.7239C67.2729 56.2954 65.0295 59.4268 62.0366 61.7201L61.4995 62.123C58.6798 64.137 55.4573 65.614 47.2667 66.9568L33.5709 69.1051Z" fill="black"/>
<path d="M48.8914 25.7218C43.3222 25.7218 38.8075 30.2365 38.8075 35.8056C38.8075 41.3748 43.3222 45.8895 48.8914 45.8895C54.4605 45.8895 58.9752 41.3748 58.9752 35.8056C58.9752 30.2365 54.4605 25.7218 48.8914 25.7218ZM48.8914 28.9712C52.6659 28.9712 55.7258 32.0311 55.7258 35.8056C55.7258 39.5802 52.6659 42.6401 48.8914 42.6401C45.1168 42.6401 42.0569 39.5802 42.0569 35.8056C42.0569 32.0311 45.1168 28.9712 48.8914 28.9712Z" fill="url(#paint0_linear_12_211)"/>
<path d="M30.0131 13.0117L14.8624 15.4602C13.9729 15.6039 13.3684 16.4415 13.5121 17.331L15.9606 32.4817C16.1043 33.3712 16.9419 33.9757 17.8314 33.8319L32.9821 31.3835C33.8716 31.2397 34.4761 30.4022 34.3323 29.5127L31.8839 14.362C31.7402 13.4725 30.9026 12.868 30.0131 13.0117ZM28.923 16.4929L30.8509 28.4226L18.9212 30.3505L16.9933 18.4208L28.923 16.4929Z" fill="url(#paint1_linear_12_211)"/>
<path d="M27.2051 39.293L20.76 57.554C20.3497 58.7164 21.3326 59.8944 22.5497 59.6989L40.9449 56.7449C42.1656 56.5489 42.7288 55.1155 41.968 54.141L30.0178 38.834C29.228 37.8223 27.6322 38.0828 27.2051 39.293ZM29.2823 43.1718L37.7146 53.9726L24.7345 56.0565L29.2823 43.1718Z" fill="url(#paint2_linear_12_211)"/>
</g>
<defs>
<linearGradient id="paint0_linear_12_211" x1="54.4151" y1="24.6558" x2="41.7851" y2="50.1076" gradientUnits="userSpaceOnUse">
<stop stop-color="#CC9300"/>
<stop offset="0.48" stop-color="#EA433A"/>
<stop offset="1" stop-color="#B327BF"/>
</linearGradient>
<linearGradient id="paint1_linear_12_211" x1="30.2039" y1="3.53384" x2="18.2285" y2="27.0221" gradientUnits="userSpaceOnUse">
<stop stop-color="#CC9300"/>
<stop offset="0.26" stop-color="#EA433A"/>
<stop offset="0.48" stop-color="#B327BF"/>
<stop offset="0.76" stop-color="#6666FF"/>
<stop offset="1" stop-color="#00BF9A"/>
</linearGradient>
<linearGradient id="paint2_linear_12_211" x1="22.2189" y1="60.6163" x2="41.516" y2="40.5986" gradientUnits="userSpaceOnUse">
<stop stop-color="#B327BF"/>
<stop offset="0.48" stop-color="#6666FF"/>
<stop offset="1" stop-color="#00C09A"/>
</linearGradient>
<clipPath id="clip0_12_211">
<rect width="70" height="70" fill="white"/>
</clipPath>
</defs>
</svg>
