<svg width="70" height="70" viewBox="0 0 70 70" fill="none" xmlns="http://www.w3.org/2000/svg">
<path d="M34.9913 0C36.3177 5.01967 40.6125 9.49988 45.2536 14.1483L46.2378 15.1324C53.5724 22.4614 61.7811 30.7875 61.7811 43.211C61.7811 52.7818 56.6752 61.6256 48.3866 66.411C40.0981 71.1963 29.8862 71.1963 21.5976 66.411C13.3091 61.6256 8.20312 52.7818 8.20312 43.211C8.20312 31.0377 16.0842 22.7994 23.2996 15.5778L23.745 15.1324L23.9669 14.9106C28.892 9.98703 33.5925 5.29347 34.9913 0ZM34.9909 40.1805C34.9909 40.1805 33.3089 42.0095 31.5472 43.9658L31.3011 44.2394C30.0282 45.6557 28.7528 47.0969 28.0751 47.9255C26.6249 49.6251 25.8127 51.7773 25.7787 54.0112C25.7787 56.4548 26.7494 58.7983 28.4772 60.5262C30.2051 62.254 32.5486 63.2247 34.9922 63.2247C40.0806 63.2247 44.2056 59.0997 44.2056 54.0112C44.2253 51.7589 43.4008 49.5807 41.8943 47.9062C41.2117 47.145 39.9923 45.781 38.7663 44.4086L38.5211 44.1342C36.7252 42.1237 34.9909 40.1805 34.9909 40.1805ZM34.9912 15.4123C34.9912 15.4123 34.9901 15.4134 34.9879 15.4155L34.913 15.4905C34.8519 15.5515 34.7571 15.6462 34.6352 15.7681L33.9271 16.4759C33.708 16.6949 33.4659 16.9369 33.2115 17.1911L31.9633 18.4391C31.735 18.6675 31.5101 18.8924 31.2953 19.1072L30.7834 19.6193C30.7512 19.6515 30.7194 19.6833 30.6882 19.7146L30.1825 20.2208C30.1334 20.2699 30.087 20.3164 30.0435 20.36L29.9962 20.4071C28.9716 21.4274 26.9067 23.3335 29.3927 26.0199C30.6845 27.4158 34.5028 31.4316 38.4724 35.6638L39.0023 36.2291C43.6879 41.2308 48.437 46.3846 49.3691 47.7639C50.1701 48.9494 50.2859 49.5047 51.3696 49.4652C51.9776 49.4431 52.4281 48.7181 52.6266 48.2838C53.5568 46.2496 55.1343 40.0854 50.5569 32.9617C47.3986 28.0464 41.1879 21.5589 37.6408 18.009L37.3392 17.7079C35.9153 16.2891 34.9912 15.4123 34.9912 15.4123ZM23.1308 27.8231C11.8846 38.9486 17.9467 49.3975 19.5893 49.4533C19.7595 49.4591 20.0432 49.4796 20.2374 48.9379C21.1782 46.3133 28.7473 38.7229 30.5232 36.9016C30.665 36.7881 30.7516 36.6195 30.7611 36.4381C30.7706 36.2567 30.7021 36.0799 30.5729 35.9523L23.1308 27.8231Z" fill="#009DDE"/>
</svg>
