<svg width="70" height="70" viewBox="0 0 70 70" fill="none" xmlns="http://www.w3.org/2000/svg">
<g clip-path="url(#clip0_12_209)">
<path d="M16.3157 0H53.6843C59.3575 0 61.4151 0.590864 63.489 1.70005C65.5633 2.80923 67.1908 4.43705 68.3 6.51095C69.4095 8.58518 70 10.6422 70 16.3157V53.6843C70 59.3575 69.4095 61.4148 68.3 63.489C67.1908 65.563 65.5633 67.1908 63.489 68.3C61.4151 69.4091 59.3578 70 53.6843 70H16.3157C10.6425 70 8.58518 69.4091 6.51095 68.3C4.43705 67.1908 2.80923 65.563 1.70005 63.489C0.590864 61.4148 0 59.3578 0 53.6843V16.3157C0 10.6425 0.590864 8.58518 1.70005 6.51095C2.80923 4.43705 4.43705 2.80923 6.51095 1.70005C8.58518 0.590864 10.6422 0 16.3157 0ZM20.0582 18.06V54.4091H28.0509V42.7L32.6327 38.0673L43.5782 54.4091H53.6073L38.0291 32.4164L52.2327 18.06H42.2545L28.0509 33.1291V18.06H20.0582Z" fill="url(#paint0_linear_12_209)"/>
<path d="M20.0582 18.0601V54.4092H28.0509V42.7001L32.6327 38.0673L43.5782 54.4092H53.6073L38.0291 32.4164L52.2327 18.0601H42.2545L28.0509 33.1292V18.0601H20.0582Z" fill="white"/>
</g>
<defs>
<linearGradient id="paint0_linear_12_209" x1="0" y1="0" x2="35" y2="50.3447" gradientUnits="userSpaceOnUse">
<stop stop-color="#5AE8FA"/>
<stop offset="1" stop-color="#2684FF"/>
</linearGradient>
<clipPath id="clip0_12_209">
<rect width="70" height="70" fill="white"/>
</clipPath>
</defs>
</svg>
