<svg width="70" height="70" viewBox="0 0 70 70" fill="none" xmlns="http://www.w3.org/2000/svg">
<path d="M68.3233 0H22.316V23.0677H44.9538C45.7603 23.0677 46.4146 23.722 46.4146 24.5285V46.8538H69.7841V1.46343C69.7848 1.07555 69.6312 0.703314 69.3572 0.428791C69.0832 0.154267 68.7112 0 68.3233 0Z" fill="#8E75FF"/>
<path opacity="0.405" d="M22.3134 0V23.0677H0.73044C0.433861 23.0672 0.166933 22.8877 0.0545699 22.6132C-0.0577932 22.3388 0.00663556 22.0236 0.217705 21.8153L22.3134 0ZM47.659 68.6931C47.4489 68.8995 47.1355 68.9598 46.8638 68.8461C46.5921 68.7324 46.4151 68.4669 46.4146 68.1724V46.8538H69.7841L47.659 68.6905V68.6931Z" fill="#8E75FF"/>
<path opacity="0.405" d="M22.3134 23.0677H45.6855C46.0861 23.0677 46.4146 23.3935 46.4146 23.7968V46.8538H23.7768C22.9701 46.8538 22.316 46.1998 22.316 45.3931V23.0677H22.3134Z" fill="#8E75FF"/>
</svg>
