<svg width="70" height="70" viewBox="0 0 70 70" fill="none" xmlns="http://www.w3.org/2000/svg">
<g clip-path="url(#clip0_13_243)">
<path d="M12.3958 5.64211e-06H57.6042C59.2324 -0.00156837 60.845 0.326206 62.3497 0.964571C63.8543 1.60293 65.2214 2.53936 66.3728 3.72024C67.5241 4.90113 68.4371 6.3033 69.0596 7.84651C69.682 9.38971 70.0015 11.0437 70 12.7137V57.2863C70.0015 58.9563 69.682 60.6103 69.0596 62.1535C68.4371 63.6967 67.5241 65.0989 66.3728 66.2798C65.2214 67.4606 63.8543 68.3971 62.3497 69.0354C60.845 69.6738 59.2324 70.0016 57.6042 70H12.3958C10.7676 70.0016 9.15497 69.6738 7.65034 69.0354C6.14572 68.3971 4.7786 67.4606 3.62724 66.2798C2.47587 65.0989 1.56286 63.6967 0.940456 62.1535C0.318051 60.6103 -0.00152916 58.9563 5.50105e-06 57.2863V12.7137C-0.00152916 11.0437 0.318051 9.38971 0.940456 7.84651C1.56286 6.3033 2.47587 4.90113 3.62724 3.72024C4.7786 2.53936 6.14572 1.60293 7.65034 0.964571C9.15497 0.326206 10.7676 -0.00156837 12.3958 5.64211e-06V5.64211e-06Z" fill="#000B1D"/>
<path d="M28.2918 56.3502C32.3189 56.3502 35.5834 53.0856 35.5834 49.0585V41.7668H28.2918C24.2647 41.7668 21.0001 45.0314 21.0001 49.0585C21.0001 53.0856 24.2647 56.3502 28.2918 56.3502Z" fill="#0ACF83"/>
<path d="M21.0001 34.475C21.0001 30.4479 24.2647 27.1833 28.2918 27.1833H35.5834V41.7667H28.2918C24.2647 41.7667 21.0001 38.5021 21.0001 34.475Z" fill="#A259FF"/>
<path d="M21.0001 19.8918C21.0001 15.8647 24.2647 12.6001 28.2918 12.6001H35.5834V27.1834H28.2918C24.2647 27.1834 21.0001 23.9188 21.0001 19.8918Z" fill="#F24E1E"/>
<path d="M35.5835 12.6001H42.8751C46.9022 12.6001 50.1668 15.8647 50.1668 19.8918C50.1668 23.9188 46.9022 27.1834 42.8751 27.1834H35.5835V12.6001Z" fill="#FF7262"/>
<path d="M50.1668 34.475C50.1668 38.5021 46.9022 41.7667 42.8751 41.7667C38.848 41.7667 35.5835 38.5021 35.5835 34.475C35.5835 30.4479 38.848 27.1833 42.8751 27.1833C46.9022 27.1833 50.1668 30.4479 50.1668 34.475Z" fill="#1ABCFE"/>
</g>
<defs>
<clipPath id="clip0_13_243">
<rect width="70" height="70" fill="white"/>
</clipPath>
</defs>
</svg>
