<svg width="70" height="70" viewBox="0 0 70 70" fill="none" xmlns="http://www.w3.org/2000/svg">
<path d="M57.75 0H12.25C5.48451 0 0 5.48451 0 12.25V57.75C0 64.5155 5.48451 70 12.25 70H57.75C64.5155 70 70 64.5155 70 57.75V12.25C70 5.48451 64.5155 0 57.75 0Z" fill="#2E0501"/>
<path d="M35.5813 42.7416H25.0487L22.4155 50.7345C22.3853 50.9781 22.2188 51.0999 21.9161 51.0999H17.1492C16.8466 51.0999 16.7406 50.9477 16.8314 50.6432L26.2744 23.513C26.4863 23.0562 26.6225 22.2036 26.683 20.9552C26.683 20.7725 26.789 20.6812 27.0008 20.6812H33.5383C33.6896 20.6812 33.8107 20.7573 33.9015 20.9095L44.4341 50.6888C44.5249 50.9629 44.4341 51.0999 44.1617 51.0999H38.8046C38.5927 51.0999 38.4414 50.9933 38.3506 50.7802L35.5813 42.7416ZM26.229 38.3112H34.4009C34.2798 37.885 33.6442 35.9514 32.4941 32.5107C31.3743 29.0395 30.6328 26.6644 30.2696 25.3856H30.2242C29.861 26.9385 28.5293 31.247 26.229 38.3112Z" fill="#F2A032"/>
<path d="M47.2527 50.6888V29.2222C47.2527 28.9786 47.3738 28.8568 47.6159 28.8568H52.6552C52.8973 28.8568 53.0184 28.9786 53.0184 29.2222V50.7345C53.0184 50.9781 52.8973 51.0999 52.6552 51.0999H47.6613C47.3889 51.0999 47.2527 50.9629 47.2527 50.6888ZM52.3828 24.2437C51.838 24.7918 51.0965 25.0659 50.1583 25.0659C49.22 25.0659 48.4785 24.7918 47.9337 24.2437C47.3889 23.6956 47.1165 22.9496 47.1165 22.0057C47.1165 21.0922 47.404 20.3462 47.9791 19.7677C48.5542 19.1892 49.2957 18.8999 50.2037 18.8999C51.1116 18.8999 51.838 19.1892 52.3828 19.7677C52.9276 20.3462 53.2 21.0922 53.2 22.0057C53.2 22.9496 52.9276 23.6956 52.3828 24.2437Z" fill="#F2A032"/>
</svg>
