<svg width="70" height="70" viewBox="0 0 70 70" fill="none" xmlns="http://www.w3.org/2000/svg">
<path d="M57.75 0H12.25C5.48451 0 0 5.48451 0 12.25V57.75C0 64.5155 5.48451 70 12.25 70H57.75C64.5155 70 70 64.5155 70 57.75V12.25C70 5.48451 64.5155 0 57.75 0Z" fill="#001E36"/>
<path d="M15.75 49.6278V20.0089C15.75 19.797 15.8562 19.691 16.0685 19.691C18.3737 19.6304 21.3007 19.6001 24.8495 19.6001C29.0353 19.6001 32.0988 20.5389 34.04 22.4166C36.0116 24.2943 36.9974 26.6111 36.9974 29.3671C36.9974 32.7893 35.7841 35.3332 33.3576 36.9989C30.931 38.6646 27.8827 39.4974 24.2126 39.4974H21.5282V49.5824C21.5282 49.8247 21.4069 49.9458 21.1642 49.9458H16.114C15.8713 49.9458 15.75 49.8398 15.75 49.6278ZM21.5282 23.9612V35.1364C21.9528 35.197 22.9386 35.2272 24.4855 35.2272C26.5178 35.2272 28.1557 34.7881 29.3993 33.9098C30.6732 33.0013 31.3102 31.5324 31.3102 29.5033C31.3102 27.7165 30.749 26.3385 29.6268 25.3694C28.5348 24.4003 26.9424 23.9157 24.8495 23.9157C24.3339 23.9157 23.8182 23.9309 23.3026 23.9612C22.8173 23.9612 22.4078 23.9612 22.0742 23.9612C21.7708 23.9612 21.5889 23.9612 21.5282 23.9612Z" fill="#31A8FE"/>
<path d="M52.8711 33.0467C51.1725 31.9867 49.3981 31.4567 47.5479 31.4567C46.4862 31.4567 45.6976 31.6536 45.182 32.0473C44.6967 32.441 44.454 32.9104 44.454 33.4556C44.454 34.0007 44.6663 34.4853 45.091 34.9092C45.5156 35.3029 46.4104 35.7724 47.7753 36.3175C50.2929 37.2866 52.0521 38.3163 53.0531 39.4066C54.0844 40.4666 54.6 41.8445 54.6 43.5405C54.6 45.5999 53.8114 47.2656 52.2341 48.5376C50.6872 49.7793 48.5791 50.4001 45.9099 50.4001C43.2407 50.4001 41.0569 49.9155 39.3583 48.9464C39.1763 48.8858 39.0853 48.7344 39.0853 48.4921V44.2674C39.0853 44.1462 39.1156 44.0705 39.1763 44.0402C39.2673 43.9796 39.3431 43.9796 39.4038 44.0402C41.3753 45.4939 43.4834 46.2207 45.728 46.2207C46.7896 46.2207 47.5934 46.039 48.1393 45.6756C48.7156 45.2819 49.0038 44.7822 49.0038 44.1765C49.0038 43.5405 48.7763 43.0105 48.3213 42.5865C47.8663 42.1323 46.9716 41.6477 45.637 41.1328C43.2104 40.194 41.5118 39.1946 40.5412 38.1346C39.6009 37.0443 39.1308 35.6815 39.1308 34.0461C39.1308 32.1684 39.8436 30.5936 41.2692 29.3216C42.6948 28.0497 44.727 27.4137 47.3659 27.4137C49.8227 27.4137 51.7185 27.7468 53.0531 28.4131C53.2047 28.5039 53.2806 28.7008 53.2806 29.0036V32.7741C53.2806 33.1376 53.1441 33.2284 52.8711 33.0467Z" fill="#31A8FE"/>
</svg>
