<svg width="1723" height="1117" viewBox="0 0 1723 1117" fill="none" xmlns="http://www.w3.org/2000/svg">
<path d="M508.375 232.136C386.688 392.72 846.76 495.567 865.794 690.728C876.647 802.006 705.083 896.317 754.254 998.417C841.427 1179.43 1046.5 666.486 1162 795.084C1229.42 870.152 1245.65 970.19 1184.3 1043.89C1058.03 1195.58 656.737 1142.98 656.737 1142.98C656.737 1142.98 539.512 1134.22 464.272 1110.91C71.4277 989.203 228.654 -124.5 128.131 114.377C27.6074 353.253 33.8085 348.5 20.388 405C6.96755 461.5 -45.4976 765.871 115.672 998.417C176.642 1086.39 212.136 1144.49 310.203 1196.6C469.438 1281.2 621.106 1315.98 804.581 1306.81C1005.12 1296.79 1135.41 1261.78 1291.68 1142.98C1428.12 1039.26 1394.94 755.954 1542.24 795.084C1663.16 827.205 1550.5 1091.39 1669.33 1129.58C1833.32 1182.29 1763.42 892.022 1782.42 732.739C1807.83 519.704 1835.06 -92.5976 1669.33 103.845C1530.85 267.989 1795.3 502.688 1669.33 636.521C1610.97 698.527 1567.74 737.991 1480.5 754.281C1359.14 776.944 1196.53 746.247 1162 636.521C1118.72 498.984 1391.82 575.136 1480.5 457.603C1559.57 352.819 1530.72 274.55 1507.49 159.853C1421.56 -264.314 389.556 -345.554 310.203 143.463C289.609 270.374 326.983 400.499 353.778 526.421C414.913 813.717 521.875 1124.65 629.753 960.599C675.074 891.679 628.884 834.894 629.753 754.281C632.285 519.714 248.654 403.235 411.878 186.067C611.887 -80.0424 1507.9 86.5157 1365.35 382.447C1304.96 507.812 1151.4 555.946 1006.89 588.172C784.404 637.786 639.54 59.0448 508.375 232.136Z" stroke="#FF0000" stroke-width="2"/>
</svg>
