<svg width="1728" height="1117" viewBox="0 0 1728 1117" fill="none" xmlns="http://www.w3.org/2000/svg">
<path d="M495.688 324.324C379.434 494.22 760.486 563.021 778.67 769.5C789.038 887.232 678.667 959.278 725.642 1067.3C808.923 1258.81 1187.36 669.976 1216.77 877.377C1230.57 974.686 1195.1 1037.44 1136.49 1115.41C1015.86 1275.9 639.905 1220.25 639.905 1220.25C639.905 1220.25 520.488 1210.98 448.607 1186.32C73.3025 1057.55 386.753 -86.9152 115.571 207.839C77.8116 248.881 59.5511 275.348 32.3122 324.324C-108.901 578.224 -38.4022 821.267 115.571 1067.3C173.819 1160.37 207.729 1221.84 301.417 1276.97C453.543 1366.49 575.633 1286.67 750.917 1276.97C942.501 1266.37 1076.78 1324.83 1239.07 1220.25C1362.95 1140.42 1331.27 878.52 1472 919.919C1587.52 953.902 1486.34 1165.66 1599.86 1206.07C1756.53 1261.83 1689.75 954.733 1707.9 786.214C1732.18 560.824 1826.21 60.1451 1657.85 207.839C1518.59 329.998 1720.21 542.822 1599.86 684.416C1544.1 750.018 1502.81 791.77 1419.47 809.005C1303.53 832.982 1169.47 814.686 1136.49 698.597C1095.14 553.083 1418 720.642 1502.73 596.292C1578.26 485.432 1534.43 381.526 1502.73 250.381C1379.96 -257.497 377.228 -354.612 301.417 162.764C281.743 297.035 317.448 434.707 343.047 567.931C401.452 871.888 503.639 1200.86 606.7 1027.29C649.997 954.371 677.73 894.292 678.561 809.005C680.979 560.834 242.616 437.601 398.553 207.839C589.632 -73.7027 1375.26 73.5251 1239.07 386.618C1181.38 519.254 1105.05 599.168 966.994 633.263C754.446 685.754 620.997 141.195 495.688 324.324Z" stroke="#FF0000" stroke-width="2"/>
</svg>
