<svg width="1712" height="1117" viewBox="0 0 1712 1117" fill="none" xmlns="http://www.w3.org/2000/svg">
<path d="M627.532 169.743C401.135 260.243 847.601 514.256 866.903 714.532C877.909 828.726 703.925 925.509 753.789 1030.28C842.192 1216.04 1050.16 741.726 1167.29 873.695C1235.66 950.729 1252.12 1001.32 1189.9 1076.95C1061.86 1232.62 692.774 1164.89 692.774 1164.89C692.774 1164.89 533.259 1125.55 442.89 1076.95C48.4087 864.8 373.295 -336.088 136.191 26.7909C47.8394 162.01 18.8774 417.33 18.8774 417.33C18.8774 417.33 -57.2475 791.644 106.196 1030.28C168.026 1120.56 210.084 1171.38 303.472 1233.66C467.387 1342.97 804.827 1346.76 804.827 1346.76C804.827 1346.76 1140.33 1300.55 1298.8 1178.64C1437.17 1072.19 1377.21 817.328 1526.6 857.484C1649.22 890.446 1561.27 1125.69 1681.78 1164.89C1848.08 1218.98 1777.19 921.101 1796.46 757.644C1822.23 539.025 1741.49 -224.416 1573.42 -22.8247C1432.98 145.621 1809.53 521.563 1681.78 658.904C1622.59 722.535 1588.23 725.324 1499.77 742.041C1376.69 765.298 1169.95 784.396 1167.29 658.904C1164.75 539.388 1387.7 625.447 1464.52 529.824C1531.58 446.349 1528.23 373.316 1526.6 268.974C1519.57 -179.312 383.945 -348.91 303.472 152.923C282.588 283.161 306.82 529.682 333.994 658.904C395.991 953.73 518.132 1159.83 627.532 991.476C673.492 920.749 626.65 797.257 627.532 714.532C630.099 473.817 241.055 419.503 406.582 196.644C609.414 -76.4398 1443.36 83.185 1298.8 386.872C1237.56 515.523 1156.54 576.217 1009.99 609.288C784.365 660.202 845.271 82.7034 627.532 169.743Z" stroke="#FF0000" stroke-width="2"/>
</svg>
