<svg width="1728" height="1117" viewBox="0 0 1728 1117" fill="none" xmlns="http://www.w3.org/2000/svg">
<path d="M802.126 176.656C590.982 129.899 823.321 522.267 841.701 724.915C852.182 840.462 686.504 938.391 733.988 1044.41C818.17 1232.36 923.534 635.006 1035.07 768.538C1100.18 846.485 1208.52 1015.1 1149.28 1091.63C1027.35 1249.14 675.885 1180.6 675.885 1180.6C675.885 1180.6 523.986 1140.8 437.932 1091.63C62.2843 876.963 448.589 -278.854 145.876 29.0282C30.9833 145.883 -3.82083 246.713 -33.4659 407.292C-79.8765 658.686 -38.3276 802.94 117.313 1044.41C176.191 1135.75 216.241 1187.17 305.171 1250.19C461.26 1360.8 782.589 1364.63 782.589 1364.63C782.589 1364.63 1100.72 1316.23 1252.98 1194.52C1360.07 1108.91 1327.64 878.635 1469.9 919.266C1586.67 952.619 1502.92 1140.94 1617.67 1180.6C1776.03 1235.33 1708.53 933.931 1726.88 768.538C1751.42 547.33 1794.46 -326.136 1596.14 -62.9282C1423.66 165.982 1739.32 529.661 1617.67 668.628C1561.31 733.013 1515.81 729.053 1444.35 752.75C1339.77 787.427 1166.85 915.517 1164.32 788.539C1161.9 667.607 1349.68 660.562 1410.79 538.02C1457.98 443.38 1471.46 379.658 1469.9 274.08C1463.21 -179.516 574.381 -290.426 370.303 115.517C265.502 323.982 302.347 621.998 328.223 752.75C387.261 1051.07 509.581 1175.49 613.758 1005.14C657.524 933.575 612.918 808.62 613.758 724.915C616.203 481.349 332.042 409.504 403.358 200.893C512.681 -118.902 1408.18 92.8442 1252.98 393.375C1189.49 516.308 1116.97 625.87 977.952 618.425C791.284 608.427 984.577 217.058 802.126 176.656Z" stroke="#FF0000" stroke-width="2"/>
</svg>
