<svg width="1728" height="1117" viewBox="0 0 1728 1117" fill="none" xmlns="http://www.w3.org/2000/svg">
<path d="M735.852 175.928C524.208 129.617 825.398 515.792 843.822 716.513C854.327 830.961 670.424 919.536 735.852 1032.97C819.365 1177.75 914.802 584.251 1026.6 716.513C1091.86 793.719 1211.52 1003.94 1152.13 1079.74C1029.91 1235.75 677.612 1167.87 677.612 1167.87C677.612 1167.87 525.353 1128.45 439.094 1079.74C62.5542 867.114 219 148 188.524 112.909C158.049 77.819 -3.7079 242.858 -33.4233 401.91C-79.9442 650.914 -38.2966 793.796 117.713 1032.97C176.731 1123.44 216.876 1174.38 306.017 1236.79C462.477 1346.35 784.569 1350.15 784.569 1350.15C784.569 1350.15 1103.45 1302.2 1256.07 1181.65C1363.42 1096.86 1305.31 808.214 1447.9 848.459C1564.95 881.494 1506.61 1128.59 1621.63 1167.87C1780.37 1222.08 1712.71 923.541 1731.1 759.721C1755.7 540.616 1784.78 -131.549 1585.99 129.157C1413.1 355.89 1778.72 520.89 1621.63 660.761C1565.72 710.547 1519.54 720.612 1447.9 744.084C1343.07 778.431 1169.74 905.302 1167.2 779.532C1164.78 659.75 1304.25 596.965 1355.51 462.96C1393.67 363.185 1423.35 303.976 1419.78 197.474C1406.28 -205.123 575.867 -289.173 371.305 112.909C266.255 319.392 303.187 614.575 329.124 744.084C388.302 1039.57 542.557 1077.74 646.982 909.016C690.851 838.132 632.011 790.885 615.338 716.513C567.562 503.41 332.953 404.101 404.437 197.474C514.021 -119.28 1401.47 23.607 1279.18 341.353C1223.19 486.838 1119.74 618.41 980.396 611.035C793.285 601.132 918.737 215.947 735.852 175.928Z" stroke="#FF0000" stroke-width="2"/>
</svg>
