<svg width="35" height="35" viewBox="0 0 35 35" fill="none" xmlns="http://www.w3.org/2000/svg">
<path d="M12.9647 22.4623C12.1653 22.56 11.5964 23.2874 11.6942 24.0868C11.792 24.8863 12.5193 25.4551 13.3188 25.3573C14.1183 25.2596 14.6871 24.5322 14.5893 23.7328C14.4915 22.9333 13.7642 22.3645 12.9647 22.4623Z" fill="white"/>
<path d="M8.09102 18.6507C7.99325 17.8512 8.56208 17.1239 9.36154 17.0261C10.161 16.9284 10.8883 17.4972 10.9861 18.2966C11.0839 19.0961 10.5151 19.8234 9.7156 19.9212C8.91614 20.019 8.18879 19.4502 8.09102 18.6507Z" fill="white"/>
<path d="M11.5485 10.8819C10.749 10.9796 10.1802 11.707 10.278 12.5065C10.3758 13.3059 11.1031 13.8747 11.9026 13.777C12.702 13.6792 13.2709 12.9519 13.1731 12.1524C13.0753 11.3529 12.348 10.7841 11.5485 10.8819Z" fill="white"/>
<path d="M22.8919 13.5349C22.7942 12.7355 23.363 12.0081 24.1625 11.9103C24.9619 11.8126 25.6893 12.3814 25.787 13.1809C25.8848 13.9803 25.316 14.7077 24.5165 14.8054C23.7171 14.9032 22.9897 14.3344 22.8919 13.5349Z" fill="white"/>
<path d="M17.4893 15.8646C16.6898 15.9624 16.121 16.6898 16.2188 17.4892C16.3165 18.2887 17.0439 18.8575 17.8433 18.7597C18.6428 18.662 19.2116 17.9346 19.1138 17.1352C19.0161 16.3357 18.2887 15.7669 17.4893 15.8646Z" fill="white"/>
<path d="M16.6149 10.2623C16.5172 9.4628 17.086 8.73545 17.8855 8.63768C18.6849 8.53991 19.4123 9.10874 19.51 9.9082C19.6078 10.7077 19.039 11.435 18.2395 11.5328C17.4401 11.6305 16.7127 11.0617 16.6149 10.2623Z" fill="white"/>
<path fill-rule="evenodd" clip-rule="evenodd" d="M3.28551 17.1554C3.47582 9.30489 9.99417 3.09508 17.8447 3.28539C25.6952 3.47569 31.905 9.99405 31.7147 17.8445C31.7026 18.3417 31.5355 18.7959 31.2276 19.1699C30.9331 19.5276 30.5519 19.7622 30.1757 19.9192C29.4436 20.2248 28.5259 20.3207 27.6178 20.3268C23.6968 20.3533 20.2911 23.7259 20.0685 27.7035C20.0166 28.6315 19.8584 29.5754 19.459 30.3171C19.2522 30.7011 18.9617 31.0665 18.5549 31.331C18.1384 31.6018 17.6608 31.7268 17.1555 31.7145C9.30501 31.5242 3.0952 25.0059 3.28551 17.1554ZM17.7917 5.47225C11.1489 5.31122 5.6334 10.5657 5.47237 17.2084C5.31134 23.8511 10.5658 29.3667 17.2085 29.5277C17.3078 29.5301 17.3446 29.5087 17.3626 29.497C17.3903 29.479 17.4545 29.4257 17.533 29.28C17.7041 28.9622 17.8385 28.4021 17.8845 27.5813C18.168 22.5138 22.4649 18.1741 27.603 18.1394C28.4227 18.1338 28.9979 18.0404 29.333 17.9005C29.4513 17.8512 29.5066 17.8094 29.5278 17.7904C29.6882 11.1482 24.434 5.63326 17.7917 5.47225Z" fill="white"/>
</svg>
