<svg width="35" height="35" viewBox="0 0 35 35" fill="none" xmlns="http://www.w3.org/2000/svg">
<path fill-rule="evenodd" clip-rule="evenodd" d="M11.302 10.9375C11.302 7.5145 14.0769 4.73959 17.5 4.73959C20.923 4.73959 23.6979 7.5145 23.6979 10.9375C23.6979 14.3605 20.923 17.1354 17.5 17.1354C14.0769 17.1354 11.302 14.3605 11.302 10.9375ZM17.5 6.92709C15.2851 6.92709 13.4895 8.72262 13.4895 10.9375C13.4895 13.1524 15.2851 14.9479 17.5 14.9479C19.7149 14.9479 21.5104 13.1524 21.5104 10.9375C21.5104 8.72262 19.7149 6.92709 17.5 6.92709Z" fill="white"/>
<path fill-rule="evenodd" clip-rule="evenodd" d="M11.6666 21.5104C9.85444 21.5104 8.38538 22.9795 8.38538 24.7917V26.5246C8.38538 26.551 8.4045 26.5735 8.43054 26.5777C14.4371 27.5584 20.5629 27.5584 26.5694 26.5777C26.5954 26.5735 26.6145 26.551 26.6145 26.5246V24.7917C26.6145 22.9795 25.1455 21.5104 23.3333 21.5104H22.8362C22.7978 21.5104 22.7596 21.5165 22.723 21.5284L21.4608 21.9406C18.8871 22.781 16.1128 22.781 13.5391 21.9406L12.2769 21.5284C12.2404 21.5165 12.2022 21.5104 12.1637 21.5104H11.6666ZM6.19788 24.7917C6.19788 21.7714 8.64632 19.3229 11.6666 19.3229H12.1637C12.4328 19.3229 12.7001 19.3655 12.9559 19.449L14.2181 19.8611C16.3506 20.5575 18.6493 20.5575 20.7818 19.8611L22.044 19.449C22.2998 19.3655 22.5671 19.3229 22.8362 19.3229H23.3333C26.3536 19.3229 28.802 21.7714 28.802 24.7917V26.5246C28.802 27.6231 28.006 28.5596 26.9219 28.7366C20.6819 29.7554 14.318 29.7554 8.07806 28.7366C6.99396 28.5596 6.19788 27.623 6.19788 26.5246V24.7917Z" fill="white"/>
</svg>
