<svg width="70" height="70" viewBox="0 0 70 70" fill="none" xmlns="http://www.w3.org/2000/svg">
<g clip-path="url(#clip0_10_124)">
<path d="M12.3958 5.64211e-06H57.6042C59.2324 -0.00156837 60.845 0.326206 62.3497 0.964571C63.8543 1.60293 65.2214 2.53936 66.3728 3.72024C67.5241 4.90113 68.4371 6.3033 69.0595 7.84651C69.682 9.38971 70.0015 11.0437 70 12.7137V57.2863C70.0015 58.9563 69.682 60.6103 69.0595 62.1535C68.4371 63.6967 67.5241 65.0989 66.3728 66.2798C65.2214 67.4606 63.8543 68.3971 62.3497 69.0354C60.845 69.6738 59.2324 70.0016 57.6042 70H12.3958C10.7676 70.0016 9.15497 69.6738 7.65034 69.0354C6.14572 68.3971 4.7786 67.4606 3.62724 66.2798C2.47587 65.0989 1.56286 63.6967 0.940456 62.1535C0.318051 60.6103 -0.00152916 58.9563 5.50105e-06 57.2863V12.7137C-0.00152916 11.0437 0.318051 9.38971 0.940456 7.84651C1.56286 6.3033 2.47587 4.90113 3.62724 3.72024C4.7786 2.53936 6.14572 1.60293 7.65034 0.964571C9.15497 0.326206 10.7676 -0.00156837 12.3958 5.64211e-06V5.64211e-06Z" fill="#F0F0F0"/>
<path d="M35.0044 62.1218L19.2589 57.7506L15.75 18.3951H54.306L50.7935 57.7446L35.0044 62.1218V62.1218Z" fill="#264DE4"/>
<path d="M47.7864 55.2389L50.7879 21.6129H35.028V58.7759L47.7864 55.2389V55.2389Z" fill="#2965F1"/>
<path d="M23.794 36.2094L24.2266 41.0362H35.028V36.2094H23.794ZM22.9247 26.4399L23.3634 31.2667H35.028V26.4399H22.9247V26.4399ZM35.028 48.7452L35.0069 48.7508L29.6313 47.2993L29.2876 43.4497H24.4422L25.1184 51.0285L35.0058 53.7731L35.028 53.7671V48.7452Z" fill="#EBEBEB"/>
<path d="M24.824 7.69995H30.6699V10.1447H27.2687V12.5895H30.6702V15.0341H24.824V7.69995ZM31.8392 7.69995H37.6852V9.82581H34.284V10.251H37.6852V15.1405H31.8393V12.9081H35.2406V12.4829H31.839V7.69995H31.8392ZM38.8546 7.69995H44.7006V9.82581H41.2993V10.251H44.7006V15.1405H38.8546V12.9081H42.2559V12.4829H38.8547V7.69995H38.8546Z" fill="black"/>
<path d="M46.2312 36.2094L47.1025 26.4399H35.0114V31.2667H41.8127L41.3736 36.2094H35.0114V41.0362H40.9551L40.3947 47.2962L35.0112 48.7493V53.7709L44.9065 51.0285L44.979 50.213L46.1134 37.5056L46.2312 36.2094V36.2094Z" fill="white"/>
</g>
<defs>
<clipPath id="clip0_10_124">
<rect width="70" height="70" fill="white"/>
</clipPath>
</defs>
</svg>
