<svg width="70" height="70" viewBox="0 0 70 70" fill="none" xmlns="http://www.w3.org/2000/svg">
<path d="M12.3958 5.64211e-06H57.6042C59.2324 -0.00156837 60.845 0.326206 62.3497 0.964571C63.8543 1.60293 65.2214 2.53936 66.3728 3.72024C67.5241 4.90113 68.4371 6.3033 69.0595 7.84651C69.682 9.38971 70.0015 11.0437 70 12.7137V57.2863C70.0015 58.9563 69.682 60.6103 69.0595 62.1535C68.4371 63.6967 67.5241 65.0989 66.3728 66.2798C65.2214 67.4606 63.8543 68.3971 62.3497 69.0354C60.845 69.6738 59.2324 70.0016 57.6042 70H12.3958C10.7676 70.0016 9.15497 69.6738 7.65034 69.0354C6.14572 68.3971 4.7786 67.4606 3.62724 66.2798C2.47587 65.0989 1.56286 63.6967 0.940456 62.1535C0.318051 60.6103 -0.00152916 58.9563 5.50105e-06 57.2863V12.7137C-0.00152916 11.0437 0.318051 9.38971 0.940456 7.84651C1.56286 6.3033 2.47587 4.90113 3.62724 3.72024C4.7786 2.53936 6.14572 1.60293 7.65034 0.964571C9.15497 0.326206 10.7676 -0.00156837 12.3958 5.64211e-06V5.64211e-06Z" fill="#F0F0F0"/>
<path d="M60.2602 32.6616L37.3368 9.74015C36.0178 8.41995 33.8769 8.41995 32.5563 9.74015L27.7965 14.5006L33.8341 20.5385C35.2377 20.0645 36.8465 20.3823 37.9648 21.5009C39.0889 22.6264 39.4044 24.249 38.9186 25.6574L44.7378 31.4768C46.1457 30.9917 47.77 31.3051 48.8942 32.4313C50.4658 34.0026 50.4658 36.5487 48.8942 38.1203C47.3223 39.6925 44.7763 39.6925 43.2035 38.1203C42.0218 36.9376 41.7295 35.2012 42.328 33.7451L36.901 28.3178L36.9005 42.5996C37.2837 42.7893 37.6453 43.0424 37.9646 43.3604C39.5358 44.9315 39.5358 47.4771 37.9646 49.0508C36.3929 50.6218 33.8458 50.6218 32.2758 49.0508C30.7044 47.4772 30.7044 44.9316 32.2758 43.3604C32.6642 42.9727 33.1135 42.6793 33.593 42.4826V28.0681C33.1133 27.8722 32.6645 27.581 32.2755 27.1902C31.0852 26.0008 30.7986 24.2537 31.409 22.792L25.4571 16.8389L9.74042 32.5557C8.41986 33.877 8.41986 36.018 9.74042 37.3383L32.6624 60.2598C33.9821 61.5801 36.1223 61.5801 37.4439 60.2598L60.2599 37.4466C61.58 36.1258 61.58 33.9841 60.2599 32.6636" fill="#F05133"/>
</svg>
