<svg width="70" height="70" viewBox="0 0 70 70" fill="none" xmlns="http://www.w3.org/2000/svg">
<g clip-path="url(#clip0_10_116)">
<path d="M12.3958 5.64211e-06H57.6042C59.2324 -0.00156837 60.845 0.326206 62.3497 0.964571C63.8543 1.60293 65.2214 2.53936 66.3728 3.72024C67.5241 4.90113 68.4371 6.3033 69.0595 7.84651C69.682 9.38971 70.0015 11.0437 70 12.7137V57.2863C70.0015 58.9563 69.682 60.6103 69.0595 62.1535C68.4371 63.6967 67.5241 65.0989 66.3728 66.2798C65.2214 67.4606 63.8543 68.3971 62.3497 69.0354C60.845 69.6738 59.2324 70.0016 57.6042 70H12.3958C10.7676 70.0016 9.15497 69.6738 7.65034 69.0354C6.14572 68.3971 4.7786 67.4606 3.62724 66.2798C2.47587 65.0989 1.56286 63.6967 0.940456 62.1535C0.318051 60.6103 -0.00152916 58.9563 5.50105e-06 57.2863V12.7137C-0.00152916 11.0437 0.318051 9.38971 0.940456 7.84651C1.56286 6.3033 2.47587 4.90113 3.62724 3.72024C4.7786 2.53936 6.14572 1.60293 7.65034 0.964571C9.15497 0.326206 10.7676 -0.00156837 12.3958 5.64211e-06V5.64211e-06Z" fill="#F0F0F0"/>
<path d="M54.2785 18.3954L50.7659 57.7458L34.9764 62.1231L19.2305 57.7519L15.7215 18.3954H54.2785Z" fill="#E44D26"/>
<path d="M35 58.7772L47.7587 55.2401L50.7603 21.6133H35V58.7772Z" fill="#F16529"/>
<path d="M28.1716 31.2673H35V26.4404H22.8964L23.0119 27.7354L24.1983 41.0371H35V36.2102H28.6128L28.1716 31.2673V31.2673ZM29.2595 43.4506H24.414L25.0902 51.0296L34.9778 53.7743L35 53.7682V48.7462L34.9789 48.7518L29.6032 47.3003L29.2595 43.4506V43.4506Z" fill="#EBEBEB"/>
<path d="M19.3088 7.69995H21.7618V10.1235H24.0057V7.69995H26.4588V15.0389H24.0059V12.5814H21.7619V15.0389H19.3089V7.69995H19.3088ZM29.6844 10.1337H27.5253V7.69995H34.2984V10.1337H32.1379V15.0389H29.6849V10.1337H29.6847H29.6844ZM35.3733 7.69995H37.931L39.5044 10.2787L41.0762 7.69995H43.635V15.0389H41.192V11.4013L39.5044 14.0107H39.462L37.7734 11.4013V15.0389H35.3733V7.69995ZM44.8557 7.69995H47.3095V12.6132H50.759V15.0389H44.8556V7.69995H44.8557Z" fill="black"/>
<path d="M34.9834 41.0371H40.9272L40.3668 47.2972L34.9832 48.7503V53.772L44.8787 51.0296L44.9513 50.2141L46.0857 37.5063L46.2034 36.2102H34.9834V41.0371ZM34.9834 31.2556V31.2673H46.6426L46.7394 30.1825L46.9594 27.7354L47.0747 26.4404H34.9834V31.2557V31.2556Z" fill="white"/>
</g>
<defs>
<clipPath id="clip0_10_116">
<rect width="70" height="70" fill="white"/>
</clipPath>
</defs>
</svg>
