<svg width="70" height="70" viewBox="0 0 70 70" fill="none" xmlns="http://www.w3.org/2000/svg">
<g clip-path="url(#clip0_10_113)">
<path d="M12.3958 5.64211e-06H57.6042C59.2324 -0.00156837 60.845 0.326206 62.3497 0.964571C63.8543 1.60293 65.2214 2.53936 66.3728 3.72024C67.5241 4.90113 68.4371 6.3033 69.0595 7.84651C69.682 9.38971 70.0015 11.0437 70 12.7137V57.2863C70.0015 58.9563 69.682 60.6103 69.0595 62.1535C68.4371 63.6967 67.5241 65.0989 66.3728 66.2798C65.2214 67.4606 63.8543 68.3971 62.3497 69.0354C60.845 69.6738 59.2324 70.0016 57.6042 70H12.3958C10.7676 70.0016 9.15497 69.6738 7.65034 69.0354C6.14572 68.3971 4.7786 67.4606 3.62724 66.2798C2.47587 65.0989 1.56286 63.6967 0.940456 62.1535C0.318051 60.6103 -0.00152916 58.9563 5.50105e-06 57.2863V12.7137C-0.00152916 11.0437 0.318051 9.38971 0.940456 7.84651C1.56286 6.3033 2.47587 4.90113 3.62724 3.72024C4.7786 2.53936 6.14572 1.60293 7.65034 0.964571C9.15497 0.326206 10.7676 -0.00156837 12.3958 5.64211e-06V5.64211e-06Z" fill="#F7DF1E"/>
<path d="M47.1411 54.7722C48.5511 57.0744 50.3856 58.7666 53.63 58.7666C56.3556 58.7666 58.0967 57.4044 58.0967 55.5222C58.0967 53.2666 56.3078 52.4678 53.3078 51.1555L51.6633 50.45C46.9167 48.4278 43.7633 45.8944 43.7633 40.5389C43.7633 35.6055 47.5222 31.85 53.3967 31.85C57.5789 31.85 60.5856 33.3055 62.7522 37.1166L57.63 40.4055C56.5022 38.3833 55.2856 37.5866 53.3967 37.5866C51.47 37.5866 50.2489 38.8089 50.2489 40.4055C50.2489 42.3789 51.4711 43.1778 54.2933 44.4L55.9378 45.1044C61.5267 47.5011 64.6822 49.9444 64.6822 55.4377C64.6822 61.36 60.03 64.6044 53.7822 64.6044C47.6733 64.6044 43.7267 61.6933 41.7956 57.8778L47.1411 54.7722ZM23.9044 55.3422C24.9378 57.1755 25.8778 58.7255 28.1378 58.7255C30.2989 58.7255 31.6622 57.88 31.6622 54.5922V32.2255H38.24V54.6811C38.24 61.4922 34.2467 64.5922 28.4178 64.5922C23.1511 64.5922 20.1011 61.8666 18.55 58.5839L23.9044 55.3422Z" fill="black"/>
</g>
<defs>
<clipPath id="clip0_10_113">
<rect width="70" height="70" fill="white"/>
</clipPath>
</defs>
</svg>
