<svg width="70" height="70" viewBox="0 0 70 70" fill="none" xmlns="http://www.w3.org/2000/svg">
<path d="M12.3958 5.64211e-06H57.6042C59.2324 -0.00156837 60.845 0.326206 62.3497 0.964571C63.8543 1.60293 65.2214 2.53936 66.3728 3.72024C67.5241 4.90113 68.4371 6.3033 69.0595 7.84651C69.682 9.38971 70.0015 11.0437 70 12.7137V57.2863C70.0015 58.9563 69.682 60.6103 69.0595 62.1535C68.4371 63.6967 67.5241 65.0989 66.3728 66.2798C65.2214 67.4606 63.8543 68.3971 62.3497 69.0354C60.845 69.6738 59.2324 70.0016 57.6042 70H12.3958C10.7676 70.0016 9.15497 69.6738 7.65034 69.0354C6.14572 68.3971 4.7786 67.4606 3.62724 66.2798C2.47587 65.0989 1.56286 63.6967 0.940456 62.1535C0.318051 60.6103 -0.00152916 58.9563 5.50105e-06 57.2863V12.7137C-0.00152916 11.0437 0.318051 9.38971 0.940456 7.84651C1.56286 6.3033 2.47587 4.90113 3.62724 3.72024C4.7786 2.53936 6.14572 1.60293 7.65034 0.964571C9.15497 0.326206 10.7676 -0.00156837 12.3958 5.64211e-06V5.64211e-06Z" fill="#F0F0F0"/>
<path d="M34.8444 61.25C34.1413 61.25 33.4431 61.0656 32.8267 60.7107L26.4043 56.9084C25.445 56.3719 25.9131 56.1822 26.2295 56.0729C27.5085 55.625 27.768 55.5239 29.1332 54.7486C29.2767 54.6668 29.4645 54.6957 29.6114 54.7823L34.5453 57.7102C34.7235 57.8065 34.9763 57.8065 35.1415 57.7102L54.3793 46.6057C54.5575 46.5045 54.6731 46.2975 54.6731 46.0856V23.8862C54.6731 23.6647 54.5575 23.4673 54.3755 23.3565L35.1453 12.2617C34.9672 12.1557 34.7312 12.1557 34.553 12.2617L15.3268 23.3565C15.1404 23.4625 15.0219 23.6695 15.0219 23.8814V46.0808C15.0219 46.2927 15.1375 46.4949 15.3205 46.596L20.5886 49.6394C23.449 51.0696 25.1971 49.3842 25.1971 47.6891V25.7787C25.1971 25.4657 25.4426 25.2249 25.7556 25.2249H28.1923C28.4956 25.2249 28.7461 25.4657 28.7461 25.7787V47.6988C28.7461 51.5126 26.6658 53.7037 23.0493 53.7037C21.937 53.7037 21.0606 53.7037 18.6143 52.4998L13.5677 49.5913C12.3205 48.8689 11.55 47.5206 11.55 46.0808V23.8814C11.55 22.4368 12.3205 21.0884 13.5677 20.3758L32.8248 9.26646C34.0431 8.57785 35.6611 8.57785 36.8698 9.26646L56.1028 20.3806C57.3452 21.0981 58.1205 22.4416 58.1205 23.8862V46.0856C58.1205 47.5254 57.3452 48.8689 56.1028 49.5913L36.8698 60.7006C36.2534 61.0569 35.5551 61.2399 34.8425 61.2399" fill="#689F63"/>
<path d="M40.7867 45.9531C32.3692 45.9531 30.6043 42.0891 30.6043 38.8483C30.6043 38.5401 30.8528 38.2945 31.1615 38.2945H33.6463C33.9208 38.2945 34.1519 38.4944 34.1952 38.7655C34.5708 41.2975 35.688 42.5745 40.778 42.5745C44.8326 42.5745 46.5566 41.6586 46.5566 39.5085C46.5566 38.2709 46.0654 37.3512 39.7667 36.7348C34.4986 36.2147 31.2434 35.0542 31.2434 30.8407C31.2434 26.9594 34.5179 24.6479 40.0027 24.6479C46.1617 24.6479 49.2147 26.786 49.6 31.38C49.6144 31.5389 49.5566 31.693 49.4507 31.8086C49.3447 31.9193 49.1955 31.9867 49.0414 31.9867H46.5421C46.2821 31.9867 46.0558 31.8037 46.0028 31.5533C45.4009 28.8904 43.9466 28.038 39.9931 28.038C35.5677 28.038 35.0524 29.579 35.0524 30.7347C35.0524 32.136 35.6591 32.5453 41.6303 33.3351C47.5437 34.12 50.3512 35.2275 50.3512 39.3833C50.3512 43.5728 46.8551 45.9757 40.7587 45.9757L40.7867 45.9531Z" fill="#689F63"/>
</svg>
