<svg width="70" height="70" viewBox="0 0 70 70" fill="none" xmlns="http://www.w3.org/2000/svg">
<g clip-path="url(#clip0_10_144)">
<path d="M12.3958 5.64211e-06H57.6042C59.2324 -0.00156837 60.845 0.326206 62.3497 0.964571C63.8543 1.60293 65.2214 2.53936 66.3728 3.72024C67.5241 4.90113 68.4372 6.3033 69.0596 7.84651C69.682 9.38971 70.0015 11.0437 70 12.7137V57.2863C70.0015 58.9563 69.682 60.6103 69.0596 62.1535C68.4372 63.6967 67.5241 65.0989 66.3728 66.2798C65.2214 67.4606 63.8543 68.3971 62.3497 69.0354C60.845 69.6738 59.2324 70.0016 57.6042 70H12.3958C10.7676 70.0016 9.15497 69.6738 7.65034 69.0354C6.14572 68.3971 4.7786 67.4606 3.62724 66.2798C2.47587 65.0989 1.56286 63.6967 0.940456 62.1535C0.318051 60.6103 -0.00152916 58.9563 5.50105e-06 57.2863V12.7137C-0.00152916 11.0437 0.318051 9.38971 0.940456 7.84651C1.56286 6.3033 2.47587 4.90113 3.62724 3.72024C4.7786 2.53936 6.14572 1.60293 7.65034 0.964571C9.15497 0.326206 10.7676 -0.00156837 12.3958 5.64211e-06V5.64211e-06Z" fill="#777BB3"/>
<path d="M16.513 39.0898C18.215 39.0898 19.4856 38.7759 20.2896 38.1571C21.085 37.5447 21.6343 36.4838 21.9222 35.0038C22.1907 33.6204 22.0884 32.6545 21.6184 32.1333C21.1377 31.6009 20.0986 31.3308 18.5299 31.3308H15.8099L14.302 39.0898H16.513ZM7.61661 48.6473C7.49035 48.6473 7.37044 48.5909 7.29017 48.4933C7.20976 48.3958 7.17717 48.2674 7.2013 48.1434L11.1976 27.5822C11.2362 27.3834 11.4104 27.2398 11.613 27.2398H20.226C22.9329 27.2398 24.9476 27.9748 26.214 29.4245C27.4872 30.882 27.8804 32.9192 27.3825 35.4795C27.1799 36.5225 26.8315 37.4913 26.3469 38.3586C25.8618 39.2269 25.2206 40.0303 24.4409 40.7469C23.5076 41.6204 22.4512 42.2538 21.304 42.6266C20.1751 42.9943 18.7251 43.1808 16.9946 43.1808H13.507L12.5111 48.3048C12.4724 48.5037 12.2983 48.6473 12.0958 48.6473H7.61661Z" fill="black"/>
<path d="M16.1588 31.7541H18.5299C20.4232 31.7541 21.0809 32.1695 21.3044 32.4171C21.6751 32.8282 21.7451 33.6949 21.5068 34.9235C21.239 36.299 20.7427 37.2742 20.0315 37.8218C19.3033 38.3824 18.1194 38.6666 16.513 38.6666H14.8154L16.1588 31.7541ZM20.226 26.8166H11.6129C11.2077 26.8166 10.8594 27.1038 10.7821 27.5015L6.78586 48.0627C6.73762 48.3109 6.80279 48.5675 6.96347 48.7626C7.12429 48.9577 7.36383 49.0706 7.61663 49.0706H12.0956C12.5009 49.0706 12.8492 48.7833 12.9266 48.3857L13.8559 43.604H16.9946C18.7696 43.604 20.2638 43.4105 21.4354 43.0289C22.6403 42.6374 23.7488 41.9737 24.73 41.0562C25.5414 40.3096 26.2098 39.4716 26.7163 38.5653C27.2229 37.6586 27.5868 36.6475 27.798 35.5602C28.3221 32.8651 27.8963 30.707 26.5327 29.1462C25.1824 27.6004 23.0604 26.8166 20.226 26.8166ZM13.7885 39.513H16.513C18.3189 39.513 19.664 39.1729 20.5478 38.4925C21.4317 37.8119 22.0279 36.6762 22.3377 35.0846C22.6341 33.5565 22.4991 32.4782 21.9327 31.85C21.3656 31.2218 20.2315 30.9076 18.5299 30.9076H15.461L13.7885 39.513V39.513ZM20.226 27.663C22.8171 27.663 24.7073 28.343 25.8954 29.703C27.0833 31.0631 27.4411 32.9615 26.9671 35.3988C26.772 36.4028 26.442 37.3207 25.9775 38.1523C25.5124 38.9845 24.9051 39.7455 24.1546 40.4354C23.2602 41.2724 22.2666 41.8689 21.1733 42.2241C20.08 42.5803 18.6875 42.7576 16.9946 42.7576H13.1581L12.0956 48.2241H7.61663L11.6129 27.663H20.226" fill="white"/>
<path d="M37.6523 43.1809C37.5259 43.1809 37.4061 43.1245 37.3259 43.0269C37.2453 42.9294 37.2127 42.8011 37.2369 42.677L39.0046 33.5795C39.1728 32.7143 39.1313 32.0933 38.888 31.8309C38.739 31.6705 38.2915 31.4015 36.9684 31.4015H33.7658L31.5432 42.8384C31.5046 43.0373 31.3303 43.1809 31.1278 43.1809H26.684C26.5576 43.1809 26.4379 43.1245 26.3574 43.0269C26.277 42.9294 26.2444 42.801 26.2686 42.677L30.2648 22.1157C30.3035 21.917 30.4777 21.7733 30.6803 21.7733H35.124C35.2504 21.7733 35.3702 21.8298 35.4506 21.9273C35.531 22.0249 35.5636 22.1531 35.5395 22.2773L34.5751 27.2399H38.0204C40.645 27.2399 42.4248 27.7026 43.4613 28.6545C44.518 29.6257 44.8477 31.1784 44.4414 33.2702L42.5821 42.8384C42.5434 43.0373 42.3693 43.1809 42.1666 43.1809H37.6523Z" fill="black"/>
<path d="M35.124 21.35H30.6803C30.275 21.35 29.9267 21.6372 29.8494 22.0349L25.8531 42.5962C25.8049 42.8443 25.8701 43.1009 26.0309 43.296C26.1917 43.4911 26.4312 43.604 26.684 43.604H31.1278C31.5329 43.604 31.8814 43.3168 31.9587 42.9191L34.1147 31.8246H36.9684C38.2893 31.8246 38.5665 32.1067 38.5776 32.1188C38.6577 32.205 38.7631 32.6043 38.5892 33.4986L36.8214 42.5962C36.7732 42.8443 36.8383 43.1009 36.9992 43.296C37.16 43.4911 37.3995 43.604 37.6523 43.604H42.1666C42.5718 43.604 42.9202 43.3168 42.9975 42.9191L44.8567 33.3509C45.293 31.1049 44.9197 29.4201 43.7477 28.3429C42.6293 27.3158 40.7559 26.8165 38.0204 26.8165H35.0884L35.955 22.358C36.0031 22.1098 35.938 21.8531 35.7772 21.6581C35.6164 21.463 35.3768 21.35 35.124 21.35ZM35.124 22.1964L34.0616 27.663H38.0204C40.5113 27.663 42.2294 28.0977 43.175 28.9662C44.1206 29.8352 44.4039 31.2432 44.0259 33.1896L42.1666 42.7576H37.6523L39.4201 33.6602C39.6213 32.6253 39.5473 31.9194 39.198 31.543C38.8486 31.1666 38.1053 30.9781 36.9684 30.9781H33.4168L31.1278 42.7576H26.684L30.6803 22.1964H35.124Z" fill="white"/>
<path d="M51.4726 39.0898C53.1746 39.0898 54.4452 38.7759 55.2492 38.1571C56.0446 37.5449 56.5939 36.4839 56.882 35.0038C57.1504 33.6204 57.0482 32.6545 56.578 32.1333C56.0973 31.6009 55.0582 31.3308 53.4895 31.3308H50.7695L49.2616 39.0898H51.4726ZM42.5764 48.6473C42.4501 48.6473 42.3302 48.5909 42.2499 48.4933C42.1695 48.3958 42.1368 48.2674 42.1609 48.1434L46.1572 27.5822C46.196 27.3834 46.37 27.2398 46.5728 27.2398H55.1856C57.8926 27.2398 59.9072 27.9748 61.1738 29.4245C62.447 30.8818 62.84 32.919 62.3423 35.4795C62.1394 36.5225 61.7911 37.4913 61.3065 38.3586C60.8214 39.2269 60.1802 40.0303 59.4005 40.7469C58.4672 41.6204 57.4108 42.2538 56.2637 42.6266C55.1347 42.9943 53.6847 43.1808 51.9542 43.1808H48.4665L47.471 48.3048C47.4322 48.5037 47.2581 48.6473 47.0554 48.6473H42.5764Z" fill="black"/>
<path d="M51.1184 31.7541H53.4895C55.3829 31.7541 56.0405 32.1695 56.264 32.4171C56.6349 32.8282 56.7048 33.6949 56.4664 34.9234C56.1987 36.299 55.7022 37.2742 54.9911 37.8218C54.2629 38.3824 53.079 38.6666 51.4726 38.6666H49.7751L51.1184 31.7541ZM55.1856 26.8166H46.5727C46.1675 26.8166 45.8192 27.1038 45.7419 27.5015L41.7456 48.0627C41.6974 48.3109 41.7626 48.5675 41.9232 48.7626C42.0841 48.9577 42.3236 49.0706 42.5764 49.0706H47.0554C47.4606 49.0706 47.809 48.7833 47.8863 48.3857L48.8156 43.604H51.9543C53.7292 43.604 55.2234 43.4105 56.395 43.0289C57.5999 42.6374 58.7088 41.9735 59.6899 41.0559C60.5013 40.3095 61.1695 39.4716 61.6759 38.5653C62.1825 37.6586 62.5465 36.6475 62.7576 35.5602C63.2817 32.865 62.856 30.7069 61.4924 29.1461C60.142 27.6004 58.0202 26.8166 55.1856 26.8166ZM48.7483 39.513H51.4726C53.2785 39.513 54.6236 39.1729 55.5074 38.4925C56.3915 37.8119 56.9875 36.6762 57.2973 35.0846C57.5939 33.5565 57.4589 32.4782 56.8923 31.85C56.3252 31.2218 55.1911 30.9076 53.4895 30.9076H50.4207L48.7483 39.513ZM55.1856 27.663C57.7767 27.663 59.6669 28.343 60.855 29.703C62.0431 31.0631 62.4007 32.9615 61.9267 35.3988C61.7316 36.4028 61.4017 37.3207 60.9371 38.1523C60.472 38.9845 59.8647 39.7455 59.1142 40.4354C58.2198 41.2724 57.2262 41.8689 56.1329 42.2241C55.0396 42.5803 53.6471 42.7576 51.9543 42.7576H48.1177L47.0554 48.2241H42.5764L46.5727 27.663H55.1856" fill="white"/>
</g>
<defs>
<clipPath id="clip0_10_144">
<rect width="70" height="70" fill="white"/>
</clipPath>
</defs>
</svg>
