<svg width="70" height="70" viewBox="0 0 70 70" fill="none" xmlns="http://www.w3.org/2000/svg">
<g clip-path="url(#clip0_10_136)">
<path d="M12.3958 5.64211e-06H57.6042C59.2324 -0.00156837 60.845 0.326206 62.3497 0.964571C63.8543 1.60293 65.2214 2.53936 66.3728 3.72024C67.5241 4.90113 68.4371 6.3033 69.0595 7.84651C69.682 9.38971 70.0015 11.0437 70 12.7137V57.2863C70.0015 58.9563 69.682 60.6103 69.0595 62.1535C68.4371 63.6967 67.5241 65.0989 66.3728 66.2798C65.2214 67.4606 63.8543 68.3971 62.3497 69.0354C60.845 69.6738 59.2324 70.0016 57.6042 70H12.3958C10.7676 70.0016 9.15497 69.6738 7.65034 69.0354C6.14572 68.3971 4.7786 67.4606 3.62724 66.2798C2.47587 65.0989 1.56286 63.6967 0.940456 62.1535C0.318051 60.6103 -0.00152916 58.9563 5.50105e-06 57.2863V12.7137C-0.00152916 11.0437 0.318051 9.38971 0.940456 7.84651C1.56286 6.3033 2.47587 4.90113 3.62724 3.72024C4.7786 2.53936 6.14572 1.60293 7.65034 0.964571C9.15497 0.326206 10.7676 -0.00156837 12.3958 5.64211e-06V5.64211e-06Z" fill="#000B1D"/>
<g clip-path="url(#clip1_10_136)">
<path d="M35 39.6285C37.6877 39.6285 39.8665 37.4779 39.8665 34.8249C39.8665 32.172 37.6877 30.0214 35 30.0214C32.3123 30.0214 30.1335 32.172 30.1335 34.8249C30.1335 37.4779 32.3123 39.6285 35 39.6285Z" fill="#61DAFB"/>
<path fill-rule="evenodd" clip-rule="evenodd" d="M11.7013 31.8278C10.5205 32.8799 10.0245 33.8946 10.0245 34.8251C10.0245 35.7555 10.5205 36.7702 11.7013 37.8224C12.8819 38.8744 14.6542 39.8732 16.9411 40.7351C21.5069 42.4558 27.8914 43.5437 35 43.5437C42.1087 43.5437 48.4931 42.4558 53.059 40.7351C55.3458 39.8732 57.1181 38.8744 58.2988 37.8224C59.4795 36.7702 59.9756 35.7555 59.9756 34.8251C59.9756 33.8946 59.4795 32.8799 58.2988 31.8278C57.1181 30.7758 55.3458 29.7769 53.059 28.915C48.4931 27.1943 42.1087 26.1064 35 26.1064C27.8914 26.1064 21.5069 27.1943 16.9411 28.915C14.6542 29.7769 12.8819 30.7758 11.7013 31.8278ZM16.1296 26.8172C21.0148 24.9761 27.6868 23.8608 35 23.8608C42.3132 23.8608 48.9853 24.9761 53.8705 26.8172C56.3092 27.7363 58.3611 28.8581 59.8232 30.1609C61.2852 31.4636 62.2506 33.0379 62.2506 34.8251C62.2506 36.6123 61.2852 38.1865 59.8232 39.4892C58.3611 40.792 56.3092 41.9138 53.8705 42.8329C48.9853 44.6741 42.3132 45.7893 35 45.7893C27.6868 45.7893 21.0148 44.6741 16.1296 42.8329C13.6909 41.9138 11.639 40.792 10.1769 39.4892C8.71484 38.1865 7.74948 36.6123 7.74948 34.8251C7.74948 33.0379 8.71484 31.4636 10.1769 30.1609C11.639 28.8581 13.6909 27.7363 16.1296 26.8172Z" fill="#61DAFB"/>
<path fill-rule="evenodd" clip-rule="evenodd" d="M25.9804 13.4101C24.4669 12.9268 23.3286 13.0102 22.5123 13.4754C21.6959 13.9406 21.0536 14.872 20.7209 16.4074C20.3882 17.9427 20.398 19.9571 20.7852 22.3429C21.5584 27.1062 23.7962 33.1077 27.3505 39.1843C30.9048 45.2609 35.0515 50.1746 38.8442 53.2172C40.7438 54.7411 42.5063 55.7567 44.0196 56.2399C45.5331 56.7232 46.6715 56.6398 47.4878 56.1746C48.3041 55.7094 48.9464 54.778 49.2792 53.2426C49.6118 51.7074 49.6021 49.6929 49.2148 47.3072C48.4417 42.5438 46.2039 36.5423 42.6496 30.4657C39.0953 24.3891 34.9485 19.4754 31.1559 16.4328C29.2563 14.9089 27.4937 13.8934 25.9804 13.4101ZM32.5907 14.6902C36.6487 17.9456 40.9632 23.0914 44.6198 29.3429C48.2764 35.5944 50.6339 41.8554 51.4612 46.9519C51.8741 49.4961 51.9158 51.811 51.5038 53.7123C51.0919 55.6134 50.1933 57.2257 48.6253 58.1193C47.0572 59.0129 45.1934 58.9748 43.3194 58.3764C41.4452 57.778 39.4351 56.5849 37.4093 54.9598C33.3514 51.7044 29.0369 46.5586 25.3803 40.3071C21.7237 34.0556 19.3661 27.7946 18.5389 22.6981C18.1259 20.1539 18.0842 17.839 18.4962 15.9377C18.9082 14.0366 19.8067 12.4243 21.3748 11.5307C22.9428 10.6371 24.8067 10.6752 26.6807 11.2736C28.5548 11.872 30.565 13.0651 32.5907 14.6902Z" fill="#61DAFB"/>
<path fill-rule="evenodd" clip-rule="evenodd" d="M49.2792 16.4074C48.9464 14.872 48.3041 13.9406 47.4878 13.4754C46.6715 13.0102 45.5331 12.9269 44.0196 13.4101C42.5063 13.8934 40.7438 14.9089 38.8442 16.4329C35.0515 19.4754 30.9048 24.3891 27.3505 30.4657C23.7962 36.5423 21.5584 42.5438 20.7852 47.3072C20.398 49.693 20.3882 51.7074 20.7209 53.2426C21.0536 54.778 21.6959 55.7094 22.5123 56.1746C23.3286 56.6399 24.4669 56.7232 25.9804 56.2399C27.4938 55.7567 29.2563 54.7411 31.1559 53.2172C34.9486 50.1746 39.0953 45.261 42.6496 39.1844C46.2039 33.1078 48.4417 27.1062 49.2148 22.3429C49.6021 19.9571 49.6118 17.9427 49.2792 16.4074ZM51.4612 22.6981C50.6339 27.7947 48.2764 34.0557 44.6198 40.3071C40.9632 46.5586 36.6487 51.7044 32.5907 54.9598C30.565 56.5849 28.5548 57.778 26.6807 58.3765C24.8067 58.9749 22.9428 59.013 21.3748 58.1194C19.8067 57.2258 18.9082 55.6134 18.4962 53.7123C18.0842 51.811 18.1259 49.4961 18.5389 46.952C19.3661 41.8554 21.7237 35.5944 25.3803 29.3429C29.0369 23.0914 33.3514 17.9457 37.4093 14.6902C39.4351 13.0651 41.4452 11.8721 43.3194 11.2736C45.1934 10.6752 47.0573 10.6371 48.6253 11.5307C50.1934 12.4243 51.0919 14.0366 51.5038 15.9378C51.9158 17.839 51.8741 20.1539 51.4612 22.6981Z" fill="#61DAFB"/>
</g>
</g>
<defs>
<clipPath id="clip0_10_136">
<rect width="70" height="70" fill="white"/>
</clipPath>
<clipPath id="clip1_10_136">
<rect width="54.6" height="47.95" fill="white" transform="translate(7.70001 10.85)"/>
</clipPath>
</defs>
</svg>
