<svg width="70" height="70" viewBox="0 0 70 70" fill="none" xmlns="http://www.w3.org/2000/svg">
<g clip-path="url(#clip0_10_132)">
<path d="M12.3958 5.64211e-06H57.6042C59.2324 -0.00156837 60.845 0.326206 62.3497 0.964571C63.8543 1.60293 65.2214 2.53936 66.3728 3.72024C67.5241 4.90113 68.4371 6.3033 69.0595 7.84651C69.682 9.38971 70.0015 11.0437 70 12.7137V57.2863C70.0015 58.9563 69.682 60.6103 69.0595 62.1535C68.4371 63.6967 67.5241 65.0989 66.3728 66.2798C65.2214 67.4606 63.8543 68.3971 62.3497 69.0354C60.845 69.6738 59.2324 70.0016 57.6042 70H12.3958C10.7676 70.0016 9.15497 69.6738 7.65034 69.0354C6.14572 68.3971 4.7786 67.4606 3.62724 66.2798C2.47587 65.0989 1.56286 63.6967 0.940456 62.1535C0.318051 60.6103 -0.00152916 58.9563 5.50105e-06 57.2863V12.7137C-0.00152916 11.0437 0.318051 9.38971 0.940456 7.84651C1.56286 6.3033 2.47587 4.90113 3.62724 3.72024C4.7786 2.53936 6.14572 1.60293 7.65034 0.964571C9.15497 0.326206 10.7676 -0.00156837 12.3958 5.64211e-06V5.64211e-06Z" fill="#000B1D"/>
<g clip-path="url(#clip1_10_132)">
<path d="M54.1802 38.1844C52.3253 38.1942 50.7132 38.6451 49.3633 39.3117C48.868 38.3216 48.3727 37.4394 48.2853 36.7924C48.1882 36.0376 48.0717 35.5769 48.1882 34.675C48.3047 33.7732 48.8292 32.489 48.8195 32.391C48.8097 32.2929 48.7029 31.8322 47.6346 31.8224C46.5664 31.8126 45.6438 32.0283 45.5369 32.3126C45.4301 32.5968 45.2262 33.2438 45.0902 33.9104C44.9057 34.8907 42.9537 38.3902 41.8368 40.2233C41.4775 39.5077 41.1667 38.8804 41.0988 38.3804C41.0016 37.6256 40.8851 37.1649 41.0016 36.263C41.1182 35.3612 41.6426 34.077 41.6329 33.979C41.6232 33.881 41.5163 33.4203 40.4481 33.4105C39.3798 33.4007 38.4572 33.6163 38.3504 33.9006C38.2435 34.1849 38.127 34.8515 37.9036 35.4984C37.6803 36.1454 35.0873 41.9878 34.4075 43.4975C34.0579 44.2719 33.7568 44.8894 33.5431 45.311C33.5431 45.311 33.5334 45.3404 33.5043 45.3894C33.3198 45.7521 33.213 45.9481 33.213 45.9481C33.213 45.9481 33.213 45.9481 33.213 45.9579C33.0673 46.2226 32.9119 46.4677 32.8342 46.4677C32.7759 46.4677 32.6691 45.7619 32.8536 44.8012C33.2421 42.7721 34.1647 39.6156 34.155 39.5078C34.155 39.4489 34.3298 38.9 33.5529 38.6157C32.7954 38.3314 32.5234 38.802 32.4555 38.802C32.3875 38.802 32.3389 38.9686 32.3389 38.9686C32.3389 38.9686 33.1838 35.42 30.7268 35.42C29.1924 35.42 27.0752 37.1159 26.0264 38.6451C25.366 39.0078 23.9578 39.7822 22.4525 40.6155C21.8795 40.9389 21.2871 41.2624 20.7336 41.5663C20.6947 41.5271 20.6559 41.4781 20.617 41.4389C17.6453 38.2334 12.1486 35.969 12.3816 31.6656C12.469 30.0971 13.0032 25.98 22.9381 20.9806C31.1153 16.9125 37.622 18.0398 38.7486 20.5395C40.3607 24.1077 35.2621 30.7343 26.813 31.695C23.5888 32.0577 21.899 30.8029 21.4717 30.3324C21.0249 29.8423 20.9569 29.8129 20.7919 29.9109C20.5199 30.0579 20.6947 30.499 20.7919 30.7539C21.0444 31.4205 22.0835 32.5968 23.8413 33.1752C25.3951 33.6849 29.1729 33.9692 33.7471 32.1851C38.8651 30.1854 42.8663 24.6272 41.6912 19.9709C40.5161 15.246 32.7468 13.6874 25.3951 16.3243C21.0249 17.8927 16.2857 20.363 12.8769 23.5783C8.82719 27.4014 8.18623 30.7245 8.44844 32.1165C9.39047 37.0571 16.14 40.2724 18.8398 42.6544C18.7039 42.7328 18.5776 42.8015 18.4708 42.8603C17.1209 43.5367 11.9737 46.252 10.6918 49.1242C9.23508 52.3787 10.9249 54.7118 12.0417 55.0255C15.5088 55.9959 19.0729 54.2511 20.9861 51.3691C22.8993 48.487 22.6662 44.7424 21.7824 43.0269C21.7727 43.0073 21.763 42.9877 21.7436 42.9681C22.0932 42.7623 22.4525 42.5466 22.8021 42.3407C23.4917 41.929 24.1715 41.5467 24.7542 41.233C24.424 42.1447 24.1812 43.2328 24.0647 44.8012C23.919 46.6441 24.6668 49.036 25.6476 49.9771C26.0847 50.3888 26.5994 50.3986 26.9296 50.3986C28.0755 50.3986 28.5902 49.4379 29.1632 48.3008C29.8625 46.9088 30.4937 45.2914 30.4937 45.2914C30.4937 45.2914 29.7071 49.6634 31.8436 49.6634C32.6205 49.6634 33.4072 48.6439 33.7568 48.1243C33.7568 48.1341 33.7568 48.1342 33.7568 48.1342C33.7568 48.1342 33.7762 48.1047 33.8151 48.0361C33.8928 47.9087 33.9413 47.8303 33.9413 47.8303C33.9413 47.8303 33.9413 47.8205 33.9413 47.8107C34.2521 47.2617 34.9513 46.0168 35.9905 43.9484C37.3307 41.282 38.6223 37.9491 38.6223 37.9491C38.6223 37.9491 38.7388 38.7627 39.137 40.1155C39.3701 40.9095 39.8557 41.782 40.2441 42.625C39.9334 43.0661 39.7391 43.3112 39.7391 43.3112C39.7391 43.3112 39.7391 43.3112 39.7488 43.321C39.4963 43.6543 39.2244 44.017 38.9234 44.3699C37.8648 45.6443 36.6023 47.1049 36.4275 47.5264C36.2235 48.0263 36.2721 48.389 36.6606 48.6831C36.9422 48.8988 37.4472 48.9282 37.9619 48.8988C38.9136 48.8301 39.5837 48.5949 39.9139 48.4478C40.4287 48.2616 41.0308 47.9773 41.594 47.5558C42.6332 46.7814 43.2644 45.6737 43.2062 44.2131C43.177 43.4092 42.9148 42.6054 42.5943 41.8506C42.6915 41.7134 42.7789 41.5761 42.876 41.4389C44.5172 39.0176 45.7894 36.3611 45.7894 36.3611C45.7894 36.3611 45.906 37.1747 46.3042 38.5275C46.4984 39.2137 46.8966 39.9587 47.2462 40.6841C45.702 41.9486 44.7503 43.419 44.4104 44.3797C43.7986 46.1638 44.2744 46.9676 45.1776 47.1539C45.5855 47.2421 46.1682 47.046 46.5955 46.8598C47.1393 46.6833 47.7803 46.3795 48.3921 45.9285C49.4313 45.1541 50.4316 44.0758 50.3733 42.6152C50.3442 41.9486 50.1694 41.2918 49.9266 40.6547C51.2376 40.1057 52.9274 39.8018 55.0834 40.0567C59.7061 40.6057 60.619 43.5171 60.4442 44.7424C60.2694 45.9677 59.2982 46.6343 58.9778 46.8402C58.6573 47.046 58.5505 47.1147 58.5796 47.2617C58.6184 47.4774 58.7738 47.4676 59.0457 47.4284C59.4245 47.3597 61.4736 46.4383 61.561 44.1837C61.7067 41.3017 58.9875 38.155 54.1802 38.1844ZM18.5193 50.3202C16.9849 52.0062 14.8484 52.6434 13.9258 52.1043C12.9352 51.5259 13.3237 49.036 15.2077 47.2519C16.3537 46.1638 17.8298 45.1541 18.8107 44.5365C19.0341 44.3993 19.3643 44.2033 19.7624 43.9582C19.8304 43.919 19.8693 43.8994 19.8693 43.8994C19.9469 43.8504 20.0246 43.8013 20.1023 43.7523C20.7919 46.301 20.1315 48.5459 18.5193 50.3202ZM29.6877 42.6544C29.1535 43.968 28.0367 47.3303 27.3569 47.1441C26.7742 46.9872 26.4149 44.4385 27.2403 41.9192C27.6579 40.6547 28.5417 39.1451 29.0564 38.5569C29.8916 37.6158 30.8142 37.3021 31.0376 37.6844C31.3192 38.1844 30.0178 41.831 29.6877 42.6544ZM38.9039 47.1049C38.6806 47.2225 38.4669 47.3009 38.3698 47.2421C38.3018 47.2029 38.4669 47.046 38.4669 47.046C38.4669 47.046 39.6226 45.7913 40.079 45.2227C40.3413 44.8894 40.652 44.4973 40.9822 44.0562C40.9822 44.0954 40.9822 44.1444 40.9822 44.1837C40.9822 45.6835 39.5449 46.6931 38.9039 47.1049ZM46.0128 45.4678C45.8477 45.3502 45.8768 44.9581 46.4304 43.7327C46.6441 43.2524 47.1491 42.4486 48.0134 41.6742C48.1105 41.9878 48.1785 42.2917 48.1688 42.576C48.1591 44.4679 46.8189 45.1737 46.0128 45.4678Z" fill="#CD6799"/>
</g>
</g>
<defs>
<clipPath id="clip0_10_132">
<rect width="70" height="70" fill="white"/>
</clipPath>
<clipPath id="clip1_10_132">
<rect width="53.2" height="40.25" fill="white" transform="translate(8.39999 15.05)"/>
</clipPath>
</defs>
</svg>
