<svg width="35" height="35" viewBox="0 0 35 35" fill="none" xmlns="http://www.w3.org/2000/svg">
<path fill-rule="evenodd" clip-rule="evenodd" d="M8.51705 14.3739C11.1236 20.0496 15.7618 24.5619 21.5277 27.0069L21.5459 27.0146L22.6598 27.5111C24.0782 28.1431 25.7454 27.6942 26.6548 26.4356L28.5133 23.8635C28.6268 23.7063 28.5975 23.4879 28.4467 23.3662L25.2023 20.7488C25.041 20.6186 24.8038 20.649 24.6804 20.8154L23.4177 22.5193C23.111 22.9332 22.5572 23.0769 22.088 22.8646C17.7766 20.9134 14.312 17.4489 12.3609 13.1374C12.1485 12.6682 12.2923 12.1144 12.7061 11.8077L14.41 10.545C14.5765 10.4216 14.6068 10.1845 14.4767 10.0232L11.8589 6.77833C11.7372 6.62752 11.5188 6.59822 11.3617 6.71164L8.77568 8.57854C7.5087 9.49319 7.06251 11.1744 7.70923 12.597L8.51618 14.372C8.51647 14.3726 8.51676 14.3732 8.51705 14.3739ZM20.6645 29.0169C14.3994 26.3575 9.36036 21.4531 6.52821 15.2847L6.5265 15.281L5.71786 13.5023C4.64 11.1314 5.38365 8.32933 7.49529 6.80492L10.0813 4.93802C11.1811 4.14409 12.7098 4.34914 13.5614 5.40482L16.1792 8.64967C17.09 9.77867 16.8779 11.4388 15.7124 12.3025L14.7361 13.0261C16.3853 16.2262 18.9992 18.8401 22.1994 20.4894L22.9229 19.513C23.7866 18.3476 25.4468 18.1354 26.5758 19.0462L29.8202 21.6636C30.8762 22.5156 31.081 24.0448 30.2864 25.1446L28.4279 27.7167C26.9122 29.8145 24.1335 30.5625 21.7695 29.5093L20.6645 29.0169Z" fill="white"/>
</svg>
